HIERARCHY
ROOT Hips
{
	OFFSET 0.000000 0.000000 0.000000 
	CHANNELS 6 Xposition Yposition Zposition Yrotation Zrotation Xrotation 
	JOINT Lumbar
	{
		OFFSET 0.000000 0.000000 0.000000 
		CHANNELS 3 Zrotation Xrotation Yrotation
		JOINT Neck
		{
			OFFSET 0.000000 0.445665 0.000000 
			CHANNELS 3 Zrotation Xrotation Yrotation
			End Site
			{
				OFFSET 0.000000 0.227535 0.000000 
			}
		}
		JOINT RightShoulder
		{
			OFFSET 0.019635 0.377685 0.194865 
			CHANNELS 3 Zrotation Xrotation Yrotation
			JOINT RightElbow
			{
				OFFSET 0.000000 -0.243375 0.000000 
				CHANNELS 2 Zrotation Yrotation
				JOINT RightWrist
				{
					OFFSET 0.000000 -0.264825 0.000000 
					CHANNELS 2 Zrotation Xrotation
					End Site
					{
						OFFSET 0.006600 -0.176220 0.000990 
					}
				}
			}
		}
		JOINT LeftShoulder
		{
			OFFSET 0.019635 0.377685 -0.194865 
			CHANNELS 3 Zrotation Xrotation Yrotation
			JOINT LeftElbow
			{
				OFFSET 0.000000 -0.243375 0.000000 
				CHANNELS 2 Zrotation Yrotation
				JOINT LeftWrist
				{
					OFFSET 0.000000 -0.264825 0.000000 
					CHANNELS 2 Zrotation Xrotation
					End Site
					{
						OFFSET 0.006600 -0.176220 -0.000990 
					}
				}
			}
		}
	}
	JOINT RightHip
	{
		OFFSET 0.052140 -0.069960 0.075570 
		CHANNELS 3 Zrotation Xrotation Yrotation
		JOINT RightKnee
		{
			OFFSET 0.000000 -0.402270 0.000000 
			CHANNELS 1 Zrotation
			JOINT RightAnkle
			{
				OFFSET 0.000000 -0.404085 0.000000 
				CHANNELS 3 Zrotation Xrotation Yrotation
				End Site
				{
					OFFSET 0.204105 -0.089430 0.008415 
				}
			}
		}
	}
	JOINT LeftHip
	{
		OFFSET 0.052140 -0.069960 -0.075570 
		CHANNELS 3 Zrotation Xrotation Yrotation
		JOINT LeftKnee
		{
			OFFSET 0.000000 -0.402270 0.000000 
			CHANNELS 1 Zrotation
			JOINT LeftAnkle
			{
				OFFSET 0.000000 -0.404085 0.000000 
				CHANNELS 3 Zrotation Xrotation Yrotation
				End Site
				{
					OFFSET 0.204105 -0.089430 -0.008415 
				}
			}
		}
	}
}
MOTION
Frames: 16
Frame Time: 0.02
0.90564 0.16366 -0.36711 391.04085 -24.60476 -4.68858 47.82868 -2.65289 -23.7162 6.96198 -16.27519 -0.83079 6.22065 -32.10877 -24.44963 133.6291 124.21435 19.52992 4.26339 14.20869 0.00726 -56.38644 87.35931 -95.08608 24.77709 1.80483 26.69865 -2.95721 -3.44856 -53.19402 -7.80809 -2.31839 -1.87309 49.38581 -1.3771 17.46374 -33.05193 -6.63511 4.50827 3.02703
0.91366 0.16749 -0.37535 392.58711 -24.506 -5.58543 47.20391 -2.38304 -24.43623 6.9239 -16.26827 -0.83079 5.55306 -31.85491 -24.76854 133.83603 123.19316 19.34689 4.075 14.42966 -0.01578 -56.16309 87.12576 -94.86253 24.40192 1.81491 29.21203 -3.03377 -4.72798 -54.86789 -7.64258 -2.55829 -1.99852 47.74553 -1.08708 16.80937 -32.06992 -6.52735 4.33955 2.92887
0.92085 0.17111 -0.38315 394.34759 -24.44288 -6.59702 46.52645 -2.08026 -25.21844 6.79486 -16.17698 -0.83079 4.53795 -31.6511 -25.23537 134.10117 121.69523 19.02925 3.81012 14.6173 -0.14165 -56.02066 86.69784 -94.97246 23.87075 1.76665 31.49339 -3.10332 -6.24267 -55.16291 -7.42259 -2.79905 -2.13055 46.20238 -0.67814 15.96741 -31.12199 -6.43679 4.14663 2.81918
0.92841 0.17478 -0.39112 396.01336 -24.37578 -7.54751 45.88259 -1.79568 -25.95532 6.70456 -16.11641 -0.83079 3.7008 -31.42742 -25.62629 134.33343 120.46642 18.77952 3.59033 14.8104 -0.21808 -55.84946 86.37402 -94.96771 23.41555 1.73869 33.88313 -3.16325 -7.57911 -56.02667 -7.22338 -3.03211 -2.25597 44.63441 -0.32315 15.21614 -30.16729 -6.34012 3.96489 2.71473
0.93597 0.17863 -0.39916 397.66765 -24.25561 -8.54292 45.18899 -1.49313 -26.76565 6.62678 -16.08242 -0.83079 2.77819 -31.18632 -26.05214 134.59423 119.02822 18.50294 3.32937 15.04268 -0.30552 -55.63592 85.99176 -94.81159 22.93557 1.73562 36.27999 -3.26989 -9.2353 -57.14607 -7.00224 -3.27309 -2.38606 42.98464 0.03537 14.43506 -29.17115 -6.23751 3.7822 2.61011
0.94334 0.18206 -0.40698 399.39759 -24.25557 -9.46838 44.5905 -1.22218 -27.43675 6.50055 -15.97528 -0.83079 1.95333 -30.9953 -26.43966 134.80867 117.90929 18.24999 3.13523 15.18516 -0.39447 -55.53212 85.68185 -95.04259 22.47175 1.66831 38.59921 -3.28355 -10.27804 -57.40419 -6.82724 -3.50379 -2.51056 41.52906 0.41302 13.67145 -28.27112 -6.151 3.59581 2.50327
0.95042 0.18443 -0.41429 401.2754 -24.57153 -10.18346 44.26082 -1.0424 -27.71411 6.26471 -15.68554 -0.83079 1.45912 -30.93185 -26.70208 134.88333 117.77425 18.0914 3.14177 15.09923 -0.46426 -55.72347 85.61997 -96.33219 22.08747 1.42625 40.76137 -3.00159 -9.51874 -55.58432 -6.81173 -3.74095 -2.63685 40.57688 0.81809 13.03582 -27.62764 -6.10301 3.40445 2.39159
0.95735 0.18637 -0.42141 403.22377 -25.00841 -10.8211 44.03128 -0.89689 -27.84802 5.98268 -15.32625 -0.83079 1.0793 -30.91751 -26.91826 134.90879 117.97617 17.96149 3.21797 14.92245 -0.53182 -56.02172 85.63609 -97.98709 21.7263 1.12377 42.84928 -2.63338 -8.13826 -52.95068 -6.84702 -3.96528 -2.75573 39.81751 1.23747 12.41984 -27.07934 -6.07062 3.21001 2.27816
0.96435 0.18846 -0.42864 405.145 -25.39482 -11.48648 43.76126 -0.73893 -28.04359 5.72039 -15.00025 -0.83079 0.66324 -30.88052 -27.1448 134.95484 118.03344 17.82095 3.26396 14.78001 -0.59922 -56.26448 85.61524 -99.42812 21.35654 0.85655 44.96966 -2.33308 -7.07435 -50.71105 -6.8522 -4.17574 -2.86715 38.97685 1.6469 11.7734 -26.48994 -6.03215 3.01789 2.16681
0.97132 0.19069 -0.43574 407.05171 -25.76421 -12.18829 43.46731 -0.56651 -28.25616 5.46035 -14.66355 -0.83079 0.16986 -30.84678 -27.42084 135.00998 118.04514 17.66641 3.30252 14.66515 -0.67489 -56.53867 85.59521 -101.08202 20.97142 0.55424 47.09287 -1.91543 -5.88195 -48.31905 -6.88339 -4.46739 -3.02343 38.11646 2.07356 11.20899 -25.89726 -5.99055 2.82244 2.05049
0.97833 0.19256 -0.44308 409.00414 -26.19645 -12.79325 43.24858 -0.43287 -28.39857 5.18567 -14.33445 -0.83079 -0.13236 -30.81706 -27.58162 135.03427 118.22961 17.54856 3.37247 14.47239 -0.73177 -56.77221 85.5932 -102.37591 20.62805 0.3116 49.18902 -1.71659 -4.79702 -46.07212 -6.87461 -4.58888 -3.08554 37.33718 2.4681 10.48354 -25.32768 -5.95833 2.63173 1.94319
0.98542 0.19351 -0.451 411.05192 -26.77995 -13.15818 43.20643 -0.39748 -28.38082 4.88409 -14.03797 -0.83079 0.08084 -30.78774 -27.4283 134.98036 118.88144 17.53448 3.52622 14.08141 -0.73434 -56.86381 85.63377 -102.57654 20.37624 0.24742 51.28191 -2.18847 -4.24308 -44.40496 -6.73403 -4.22849 -2.88069 36.77257 2.75426 9.28839 -24.8478 -5.94854 2.46132 1.86585
0.99257 0.19413 -0.45919 413.14501 -27.42106 -13.42624 43.2382 -0.4002 -28.2975 4.56969 -13.75298 -0.83079 0.48146 -30.75989 -27.16116 134.89759 119.68393 17.55515 3.70687 13.6166 -0.7181 -56.91121 85.68853 -102.40251 20.16978 0.24585 53.33954 -2.87525 -3.80431 -42.92272 -6.55359 -3.70034 -2.58302 36.27524 3.01068 7.93621 -24.3776 -5.94417 2.28865 1.79376
0.99972 0.1949 -0.46732 415.22487 -28.03071 -13.7324 43.24059 -0.38598 -28.24472 4.25981 -13.46674 -0.83079 0.78763 -30.73076 -26.95012 134.83124 120.37253 17.55453 3.86633 13.18889 -0.71191 -56.98064 85.72989 -102.40462 19.95527 0.21668 55.3817 -3.43374 -3.25485 -41.37553 -6.39768 -3.2589 -2.33349 35.72194 3.28987 6.66892 -23.87168 -5.94118 2.12055 1.72018
1.00674 0.19563 -0.47517 417.27513 -28.66653 -14.06059 43.22804 -0.37137 -28.18333 3.95265 -13.16132 -0.83079 1.13613 -30.70761 -26.71921 134.74991 121.26578 17.57849 4.06612 12.74189 -0.69941 -57.04517 85.80308 -102.3945 19.68859 0.18189 57.56129 -4.11793 -2.92124 -39.71758 -6.21633 -2.77236 -2.0583 35.28315 3.52785 5.34114 -23.50508 -5.93611 1.96216 1.65537
1.01405 0.19639 -0.48369 419.39825 -29.2604 -14.32131 43.26359 -0.36611 -28.1268 3.63881 -12.89943 -0.83079 1.44028 -30.66964 -26.5031 134.69274 121.76241 17.55861 4.18726 12.32014 -0.69555 -57.10862 85.8125 -102.31657 19.54085 0.17433 59.43826 -4.5932 -2.18474 -38.34616 -6.07796 -2.34065 -1.81493 34.61867 3.84781 4.10679 -22.84464 -5.91942 1.75198 1.55776
